<svg xmlns:dc="http://purl.org/dc/elements/1.1/" xmlns:cc="http://creativecommons.org/ns#" xmlns:rdf="http://www.w3.org/1999/02/22-rdf-syntax-ns#" xmlns:svg="http://www.w3.org/2000/svg" xmlns="http://www.w3.org/2000/svg" width="8.6002741in" height="8.6000004in" viewBox="0 0 218.44697 218.44002" version="1.1" id="svg6329">
  <title id="title6904">Mask Sign</title>
  <defs id="defs6323"/>
  <metadata id="metadata6326">
    <rdf:RDF>
      <cc:Work rdf:about="">
        <dc:format>image/svg+xml</dc:format>
        <dc:type rdf:resource="http://purl.org/dc/dcmitype/StillImage"/>
        <dc:title>Mask Sign</dc:title>
      </cc:Work>
    </rdf:RDF>
  </metadata>
  <g id="layer1" transform="translate(13.973485,-32.899043)">
    <g id="g6303" transform="matrix(0.40000635,0,0,0.40000635,49.289233,113.09357)">
      <path style="fill:#fdc900;stroke-width:0.264583" d="m 108.1579,325.91381 c -4.82945,-0.9905 -10.095769,-3.46178 -14.022922,-6.58048 C 92.19259,317.79081 -129.606,96.052063 -131.38881,93.870388 c -10.20535,-12.488579 -10.29556,-29.852882 -0.21992,-42.333333 1.42059,-1.759651 98.331009,-98.762849 169.51975,-169.682045 52.958032,-52.75751 57.187253,-56.90665 59.398958,-58.27417 3.090672,-1.911 7.160402,-3.51209 11.041862,-4.34403 8.13598,-1.74384 17.29634,-0.0358 24.41231,4.55187 2.51581,1.62195 8.21316,7.27313 115.93134,114.991658 107.88509,107.88546 113.36663,113.412013 114.98762,115.931717 3.2807,5.099547 5.22166,11.802504 5.22166,18.032545 0,5.85539 -1.84147,12.275211 -4.99724,17.421622 -1.34707,2.196809 -3.79714,4.727654 -31.63326,32.676038 -70.70109,70.98618 -194.09979,194.36527 -195.80596,195.77482 -4.61774,3.81494 -9.93918,6.37735 -15.37021,7.40113 -4.01066,0.75602 -8.93874,0.71626 -12.9402,-0.1044 z m 12.48813,-15.49323 c 4.01139,-0.75864 8.1981,-2.47894 11.67496,-4.79719 2.68349,-1.78925 8.09271,-7.15124 108.4261,-107.47955 C 342.00075,96.895317 346.42045,92.436214 348.08952,89.845044 355.0401,79.054579 355.01213,65.620485 348.01761,55.287495 346.34179,52.811794 337.69142,44.095699 240.40577,-53.142026 123.46893,-170.02125 132.94531,-160.82476 126.81102,-163.38156 c -3.47488,-1.44834 -8.3039,-2.43659 -11.90625,-2.43659 -5.77278,0 -12.33857,2.01911 -17.330208,5.3294 -2.460596,1.63178 -10.066004,9.18011 -108.631525,107.816257 C -109.72527,46.066511 -117.15438,53.562676 -118.66089,55.90268 c -4.24558,6.59447 -5.79022,15.067232 -4.17779,22.916219 0.81976,3.990422 2.22953,7.425245 4.49444,10.950448 1.7323,2.696236 4.89834,5.891371 107.396651,108.383283 100.799035,100.79278 105.74071,105.69077 108.442064,107.48356 6.920605,4.59293 15.160255,6.29569 23.151555,4.78439 z m -11.69438,-10.97855 c -3.78748,-0.80459 -7.38184,-2.29751 -10.475841,-4.35117 C 96.229566,293.59993 86.168737,283.62572 -4.7753919,192.72864 -98.375786,99.17666 -105.67047,91.822355 -107.4037,89.26132 c -2.29963,-3.397964 -3.73793,-6.838151 -4.58707,-10.971588 -1.18838,-5.784842 -0.68888,-10.915539 1.63658,-16.810167 2.48706,-6.304235 -6.49943,2.978025 105.5897598,-109.065047 C 106.19525,-158.49951 97.704276,-150.26027 103.50289,-152.64291 c 3.1203,-1.28212 8.24091,-2.32733 11.40188,-2.32733 3.18321,0 8.28037,1.04476 11.44987,2.34687 5.69907,2.3413 -2.1938,-5.31962 108.35891,105.174635 97.20141,97.150021 100.69214,100.672353 102.55481,103.483707 3.2441,4.896299 5.17808,11.085861 5.17808,16.572042 0,3.12375 -1.05241,8.26349 -2.32733,11.366291 C 337.73619,89.772628 345.97656,81.2796 235.06198,192.2516 141.51,285.85198 134.15569,293.14667 131.59466,294.8799 c -6.762,4.57632 -14.87847,6.21163 -22.64301,4.56213 z M 57.819794,138.9157 l 0.06727,-30.22864 2.843149,-0.0751 2.843149,-0.0751 0.06727,30.23759 0.06727,30.23758 h 51.196878 51.19687 l 0.0673,-30.23758 0.0673,-30.23759 2.84313,0.0751 2.84316,0.0751 0.0673,30.23078 0.0673,30.23077 15.41084,-0.0683 15.41087,-0.0683 v -25.53229 c 0,-27.65763 -0.0236,-28.22638 -1.47672,-35.5424 -1.86894,-9.409776 -5.83155,-18.09774 -11.96237,-26.227312 -2.4643,-3.267728 -8.59689,-9.238493 -12.35779,-12.031691 C 165.3592,60.971978 151.50165,55.853063 135.13817,54.184571 129.06413,53.565234 96.795496,53.731022 92.150603,54.405429 80.943742,56.032585 71.773112,58.79011 63.446428,63.036516 56.44577,66.606682 51.025582,70.538139 45.57806,75.99708 39.934249,81.652726 36.698786,86.188926 33.396014,93.076638 29.413601,101.3817 27.578408,108.92134 27.052517,119.1381 c -0.274214,5.3273 -0.343114,49.56437 -0.07761,49.82985 0.09701,0.097 7.061665,0.1764 15.477003,0.1764 H 57.752529 Z M 122.65701,44.794522 c 6.27864,-1.225405 12.29273,-4.076819 17.7532,-8.417179 2.21863,-1.763522 6.65736,-6.079226 6.45779,-6.278798 -0.0765,-0.07649 -1.13803,0.229439 -2.35897,0.679831 -1.22092,0.450392 -4.0458,1.347896 -6.27748,1.994455 -14.81671,4.292688 -28.69691,4.840047 -41.979905,1.655456 -3.608869,-0.865225 -9.021546,-2.623352 -11.635793,-3.779494 -0.848333,-0.375173 -1.585222,-0.639333 -1.63753,-0.587025 -0.142124,0.142121 4.851077,4.987496 6.539743,6.346132 3.252118,2.616525 7.970086,5.344715 11.616705,6.717421 2.1753,0.818851 6.5017,1.863887 9.03142,2.181527 3.03776,0.381431 9.2082,0.128341 12.49082,-0.512326 z M 83.169579,28.483756 c 1.548376,-3.612211 2.271001,-8.98442 1.834324,-13.6369 -0.310713,-3.31043 -1.093864,-7.4783399 -1.792729,-9.5408543 l -0.453279,-1.337728 -8.854419,-5.1084136 c -4.869929,-2.8096263 -8.896905,-5.0659242 -8.948835,-5.0139944 -0.05193,0.05193 0.215318,1.3797015 0.593884,2.9506042 2.130231,8.839618 5.669097,17.0253291 10.568458,24.4457931 1.923751,2.913669 6.135994,8.466667 6.422416,8.466667 0.05776,0 0.341337,-0.551328 0.63018,-1.225174 z M 149.6108,26.996951 c 5.8171,-7.282323 10.66252,-16.466333 13.32937,-25.2645176 0.9135,-3.0137391 2.06147,-7.7440843 1.91325,-7.8837155 -0.0411,-0.038695 -4.18235,2.2962949 -9.20282,5.18886808 l -9.12812,5.25922082 -1.14858,2.8010194 c -2.66153,6.4906448 -2.84832,12.7442148 -0.54499,18.2454788 0.74641,1.782776 2.2171,4.365625 2.48578,4.365625 0.0714,0 1.10464,-1.220391 2.29611,-2.711979 z m -25.71832,0.338992 c 3.11931,-0.525494 6.49428,-1.285282 8.40864,-1.892996 0.59976,-0.190389 0.8599,-0.436187 0.8599,-0.812477 0,-0.432475 -0.11811,-0.506447 -0.59531,-0.372867 -1.77409,0.496602 -8.62587,1.758797 -10.91406,2.010521 -3.82229,0.420492 -11.35941,0.354632 -15.08125,-0.131778 -2.71301,-0.354566 -7.266776,-1.268153 -9.326567,-1.871118 -0.482701,-0.1413 -0.595313,-0.06994 -0.595313,0.377254 0,0.460679 0.35954,0.661035 2.182813,1.216393 2.549267,0.776491 6.642217,1.635207 9.458857,1.984504 3.27702,0.406392 11.82882,0.12826 15.60229,-0.507436 z m 9.26854,-10.591596 c 0,-0.524055 -0.1764,-0.529167 -18.25625,-0.529167 -18.07986,0 -18.25625,0.0051 -18.25625,0.529167 0,0.524055 0.17639,0.529166 18.25625,0.529166 18.07985,0 18.25625,-0.0051 18.25625,-0.529166 z M 100.13739,7.8811595 c 4.99199,-1.2093892 8.35382,-1.5721435 14.5028,-1.5649045 6.0002,0.00706 8.78461,0.3039374 14.81666,1.5797424 3.58923,0.7591372 3.70417,0.7666725 3.70417,0.2428425 0,-0.5002345 -0.48585,-0.6868636 -4.09747,-1.5739745 -8.49164,-2.0857607 -17.99294,-2.3327942 -25.93274,-0.6742562 -3.688597,0.770509 -6.332909,1.6745082 -6.434027,2.1995685 -0.114843,0.5963285 0.193778,0.5775802 3.440607,-0.2090182 z M 86.466533,1.1561788 c 5.769494,-2.574462 12.360984,-4.5179033 18.648657,-5.4983856 4.25459,-0.6634507 14.22661,-0.6585929 18.52083,0.00902 6.47814,1.0071417 12.12927,2.5701096 18.48287,5.11192196 3.20672,1.28286934 4.476,1.67832884 4.78147,1.48971264 0.22873,-0.1412319 4.47855,-2.60029589 9.44406,-5.4645877 l 9.02819,-5.2078017 0.30022,-2.3410514 c 2.36961,-18.47722 -1.00787,-35.36559 -9.76196,-48.812598 -7.13083,-10.953544 -16.35469,-18.635171 -26.70074,-22.236401 -4.43467,-1.543603 -7.21609,-2.024745 -12.66662,-2.191131 -8.43835,-0.257593 -14.85854,1.086987 -21.754204,4.555985 -12.539387,6.308174 -23.985291,20.897408 -28.436102,36.245358 -2.926709,10.092322 -3.722073,22.036394 -2.171237,32.605768 l 0.319678,2.1786847 9.392708,5.4222782 c 5.16599,2.98225372 9.452248,5.4248923 9.525016,5.4280859 0.07277,0.0032 1.443993,-0.5794931 3.047164,-1.2948603 z m 0.682435,-32.5950498 c -1.807996,-0.903468 -3.433379,-2.676531 -4.032544,-4.398944 -0.547711,-1.574493 -0.419648,-4.486717 0.259397,-5.898878 1.418564,-2.950075 3.657262,-4.495543 6.804639,-4.697531 3.402939,-0.218387 6.181135,1.317754 7.733641,4.276143 0.609992,1.162372 0.71137,1.676053 0.71137,3.604511 0,1.928458 -0.101378,2.442139 -0.71137,3.604511 -0.884981,1.68638 -2.761723,3.368215 -4.370099,3.916244 -0.672695,0.229208 -2.016291,0.416745 -2.985772,0.416745 -1.443001,0 -2.061319,-0.149228 -3.409262,-0.822801 z m 49.008242,0.389535 c -1.51209,-0.5358 -3.40582,-2.26863 -4.26177,-3.899723 -0.61,-1.162372 -0.71136,-1.676053 -0.71136,-3.604511 0,-1.928458 0.10136,-2.442139 0.71136,-3.604511 1.55638,-2.965786 4.32935,-4.494615 7.75367,-4.274857 8.0931,0.519385 10.25667,11.373585 2.99085,15.004372 -1.37766,0.688428 -1.91241,0.809305 -3.50192,0.791607 -1.0318,-0.01148 -2.37316,-0.197056 -2.98083,-0.412377 z" id="path6309"/>
      <path style="fill:#2a2927;stroke-width:0.264583" d="m 112.84267,310.76506 c 0.9759,-0.0507 2.64278,-0.0511 3.70417,0 1.06139,0.0503 0.26293,0.0919 -1.77436,0.0923 -2.03729,0 -2.90571,-0.0408 -1.92981,-0.0915 z m -2.75001,-0.24937 c 0.191,-0.0764 0.4192,-0.067 0.50712,0.0209 0.0879,0.0879 -0.0683,0.15046 -0.34727,0.13898 -0.30822,-0.0127 -0.37092,-0.0754 -0.15985,-0.15986 z m 9.26042,0 c 0.19099,-0.0764 0.4192,-0.067 0.50712,0.0209 0.0879,0.0879 -0.0684,0.15046 -0.34727,0.13898 -0.30823,-0.0127 -0.37092,-0.0754 -0.15985,-0.15986 z m 15.39544,-6.83072 c 0.34176,-0.3638 0.68093,-0.66146 0.75369,-0.66146 0.0728,0 -0.14734,0.29766 -0.48911,0.66146 -0.34176,0.3638 -0.68093,0.66146 -0.75369,0.66146 -0.0728,0 0.14735,-0.29766 0.48911,-0.66146 z M -11.037021,198.05008 -115.6796,93.341222 -10.970751,197.9838 c 57.58987,57.55343 104.708854,104.67242 104.708854,104.70885 0,0.0365 -0.02982,0.0663 -0.06627,0.0663 -0.03645,0 -47.155433,-47.11898 -104.708854,-104.70885 z M 111.15099,299.93236 c 0.191,-0.0764 0.4192,-0.067 0.50712,0.0209 0.0879,0.0879 -0.0683,0.15047 -0.34726,0.13899 -0.30823,-0.0127 -0.37092,-0.0754 -0.15986,-0.15986 z m 7.14375,0 c 0.191,-0.0764 0.4192,-0.067 0.50712,0.0209 0.0879,0.0879 -0.0684,0.15047 -0.34726,0.13899 -0.30823,-0.0127 -0.37092,-0.0754 -0.15986,-0.15986 z m -8.46666,-0.26458 c 0.19099,-0.0764 0.4192,-0.067 0.50712,0.0209 0.0879,0.0879 -0.0684,0.15047 -0.34727,0.13898 -0.30823,-0.0127 -0.37092,-0.0754 -0.15985,-0.15986 z m 9.78958,0 c 0.191,-0.0764 0.4192,-0.067 0.50712,0.0209 0.0879,0.0879 -0.0683,0.15047 -0.34727,0.13898 -0.30822,-0.0127 -0.37092,-0.0754 -0.15985,-0.15986 z m -11.1125,-0.26459 c 0.191,-0.0764 0.4192,-0.067 0.50712,0.0209 0.0879,0.0879 -0.0684,0.15046 -0.34727,0.13898 -0.30822,-0.0127 -0.37092,-0.0754 -0.15985,-0.15986 z m 12.43542,0 c 0.19099,-0.0764 0.4192,-0.067 0.50712,0.0209 0.0879,0.0879 -0.0684,0.15046 -0.34727,0.13898 -0.30823,-0.0127 -0.37092,-0.0754 -0.15985,-0.15986 z m -13.75834,-0.26458 c 0.191,-0.0764 0.4192,-0.0671 0.50712,0.0209 0.0879,0.0879 -0.0683,0.15047 -0.34726,0.13899 -0.30823,-0.0127 -0.37092,-0.0754 -0.15986,-0.15986 z m 37.09128,-4.68167 c 0,-0.0549 0.20836,-0.26329 0.46302,-0.46302 0.41966,-0.32909 0.429,-0.31975 0.0999,0.0999 -0.34565,0.44071 -0.56293,0.58089 -0.56293,0.36311 z m 1.85208,-1.88447 c 0.49366,-0.50932 0.95708,-0.92604 1.02984,-0.92604 0.0728,0 -0.27159,0.41672 -0.76525,0.92604 -0.49366,0.50932 -0.95708,0.92604 -1.02984,0.92604 -0.0728,0 0.27159,-0.41672 0.76525,-0.92604 z M -5.216193,192.49383 -105.62544,92.018305 -5.1499175,192.42755 C 50.111619,247.65262 95.325603,292.86661 95.325603,292.90307 c 0,0.0365 -0.02982,0.0663 -0.06628,0.0663 -0.03645,0 -45.250439,-45.21399 -100.475521,-100.47552 z M 235.0256,192.29539 C 290.25063,137.07023 335.49424,91.886013 335.56701,91.886013 c 0.0728,0 -45.0518,45.184217 -100.27682,100.409377 -55.22503,55.22515 -100.46864,100.40937 -100.54141,100.40937 -0.0728,0 45.0518,-45.18422 100.27682,-100.40937 z m 11.2448,0.13229 c 54.42463,-54.42479 99.01343,-98.954167 99.08619,-98.954167 0.0728,0 -44.39698,44.529377 -98.82161,98.954167 -54.42463,54.42479 -99.01343,98.95417 -99.0862,98.95417 -0.0728,0 44.39698,-44.52938 98.82162,-98.95417 z M 26.920366,168.81362 c -0.06937,-0.1819 -0.09474,-10.80823 -0.05638,-23.61407 l 0.06975,-23.28333 0.06468,23.47963 0.06468,23.47965 15.41198,0.0705 15.411979,0.0704 -15.420282,0.064 c -12.140009,0.0504 -15.447116,-0.006 -15.546414,-0.26675 z m 36.777512,0 c -0.06942,-0.18161 -0.09505,-13.84433 -0.05696,-30.36094 l 0.06926,-30.03021 0.06501,30.22865 0.065,30.22864 h 51.063462 51.06345 l 0.069,-30.22864 0.069,-30.22865 -0.003,30.29479 -0.003,30.29479 -51.13878,0.0668 c -40.771939,0.0533 -51.164357,0 -51.264986,-0.26458 z m 123.701272,0.13271 15.34443,-0.0715 0.0697,-23.41351 0.0697,-23.4135 -0.003,23.48179 -0.003,23.48177 -15.41201,0.003 -15.412,0.003 15.34443,-0.0715 z M 27.129826,116.88914 c 0.0029,-0.58209 0.05712,-0.78907 0.120407,-0.45993 0.06328,0.32912 0.06088,0.80537 -0.0053,1.05834 -0.06622,0.25294 -0.118004,-0.0164 -0.115067,-0.59841 z m 175.418754,0 c 0.003,-0.58209 0.0571,-0.78907 0.12041,-0.45993 0.0633,0.32912 0.0609,0.80537 -0.005,1.05834 -0.0662,0.25294 -0.118,-0.0164 -0.11507,-0.59841 z M 27.369462,114.11101 c 0,-0.3638 0.06006,-0.51263 0.133453,-0.33073 0.0734,0.18191 0.0734,0.47956 0,0.66146 -0.0734,0.1819 -0.133453,0.0331 -0.133453,-0.33073 z m 174.889588,0 c 0,-0.3638 0.0601,-0.51263 0.13345,-0.33073 0.0734,0.18191 0.0734,0.47956 0,0.66146 -0.0734,0.1819 -0.13345,0.0331 -0.13345,-0.33073 z M 27.613159,111.84002 c 0.0127,-0.30824 0.07539,-0.37092 0.159851,-0.15987 0.07643,0.19101 0.06703,0.41921 -0.02088,0.50713 -0.08792,0.0879 -0.150453,-0.0684 -0.138965,-0.34726 z m 174.360401,0 c 0.0127,-0.30824 0.0754,-0.37092 0.15986,-0.15987 0.0764,0.19101 0.067,0.41921 -0.0209,0.50713 -0.0879,0.0879 -0.15047,-0.0684 -0.13898,-0.34726 z m -174.095818,-1.5875 c 0.0127,-0.30824 0.07539,-0.37092 0.159851,-0.15987 0.07643,0.19101 0.06703,0.41921 -0.02088,0.50713 -0.08792,0.0879 -0.150452,-0.0684 -0.138964,-0.34726 z m 173.831238,0 c 0.0127,-0.30824 0.0754,-0.37092 0.15986,-0.15987 0.0764,0.19101 0.067,0.41921 -0.0209,0.50713 -0.0879,0.0879 -0.15047,-0.0684 -0.13899,-0.34726 z m -173.566654,-1.5875 c 0.0127,-0.30824 0.07539,-0.37092 0.15985,-0.15987 0.07643,0.19101 0.06703,0.41921 -0.02088,0.50713 -0.08792,0.0879 -0.150453,-0.0684 -0.138965,-0.34726 z M 39.233937,83.054867 c 0,-0.05494 0.208359,-0.2633 0.463021,-0.463021 0.419645,-0.329107 0.429003,-0.319749 0.0999,0.0999 -0.345644,0.440729 -0.562917,0.580892 -0.562917,0.363124 z M 188.95434,81.368826 c -0.32909,-0.419645 -0.31975,-0.429004 0.0999,-0.0999 0.25466,0.19972 0.46302,0.40808 0.46302,0.463021 0,0.217762 -0.21728,0.07761 -0.56293,-0.363125 z M 41.482895,80.244347 c 0.26339,-0.291042 0.538422,-0.529167 0.611182,-0.529167 0.07276,0 -0.08321,0.238125 -0.346599,0.529167 -0.26339,0.291041 -0.538421,0.529166 -0.611182,0.529166 -0.07276,0 0.08321,-0.238125 0.346599,-0.529166 z m 146.554035,-0.06615 -0.50403,-0.595313 0.59531,0.504029 c 0.55943,0.473662 0.71575,0.686596 0.50403,0.686596 -0.0502,0 -0.31811,-0.26789 -0.59531,-0.595312 z m -299.85919,-0.08819 c 0.0127,-0.308226 0.0754,-0.370919 0.15985,-0.159853 0.0764,0.190995 0.067,0.4192 -0.0209,0.507119 -0.0879,0.08792 -0.15046,-0.06835 -0.13897,-0.347266 z m 453.23124,0 c 0.0127,-0.308226 0.0754,-0.370919 0.15986,-0.159853 0.0764,0.190995 0.067,0.4192 -0.0209,0.507119 -0.0879,0.08792 -0.15047,-0.06835 -0.13899,-0.347266 z m -453.49582,-1.322916 c 0.0127,-0.308227 0.0754,-0.37092 0.15985,-0.159854 0.0764,0.190995 0.067,0.419201 -0.0209,0.507119 -0.0879,0.08792 -0.15045,-0.06835 -0.13896,-0.347265 z M 43.599562,77.863097 c 0.568388,-0.582084 1.092967,-1.058334 1.165727,-1.058334 0.07276,0 -0.332755,0.47625 -0.901144,1.058334 -0.568388,0.582083 -1.092967,1.058333 -1.165728,1.058333 -0.07276,0 0.332756,-0.47625 0.901145,-1.058333 z m 142.463888,0.06615 -0.91181,-0.992188 0.99219,0.911799 c 0.54571,0.501489 0.99219,0.947973 0.99219,0.992188 0,0.202041 -0.22389,0.01169 -1.07257,-0.911799 z m -298.41487,-0.485069 c 0.0127,-0.308226 0.0754,-0.370919 0.15985,-0.159853 0.0764,0.190994 0.067,0.4192 -0.0209,0.507119 -0.0879,0.08792 -0.15045,-0.06835 -0.13896,-0.347266 z m -10.84792,-0.264583 c 0.0127,-0.308227 0.0754,-0.37092 0.15985,-0.159854 0.0764,0.190995 0.067,0.419201 -0.0209,0.507119 -0.0879,0.08792 -0.15045,-0.06835 -0.13896,-0.347265 z m 465.13749,0 c 0.0127,-0.308227 0.0754,-0.37092 0.15986,-0.159854 0.0764,0.190995 0.067,0.419201 -0.0209,0.507119 -0.0879,0.08792 -0.15046,-0.06835 -0.13898,-0.347265 z m -454.55416,-1.058334 c 0.0127,-0.308226 0.0754,-0.370919 0.15985,-0.159853 0.0764,0.190995 0.067,0.4192 -0.0209,0.507119 -0.0879,0.08792 -0.15046,-0.06835 -0.13897,-0.347266 z m -10.76441,-3.417535 c 4.2e-4,-2.037292 0.0419,-2.835754 0.0923,-1.774362 0.0503,1.061392 0.05,2.728267 -7.5e-4,3.704166 -0.0508,0.9759 -0.092,0.107487 -0.0915,-1.929804 z m 465.58315,3.152952 c 0.0127,-0.308226 0.0754,-0.370919 0.15986,-0.159853 0.0764,0.190994 0.067,0.4192 -0.0209,0.507119 -0.0879,0.08792 -0.15047,-0.06835 -0.13899,-0.347266 z m 10.93144,-3.152952 c 0,-2.037292 0.0419,-2.835754 0.0923,-1.774362 0.0504,1.061392 0.05,2.728267 0,3.704166 -0.0508,0.9759 -0.092,0.107487 -0.0915,-1.929804 z M 47.303728,74.15893 c 0.568389,-0.582083 1.092968,-1.058333 1.165728,-1.058333 0.07276,0 -0.332756,0.47625 -0.901144,1.058333 -0.568389,0.582083 -1.092968,1.058333 -1.165728,1.058333 -0.07276,0 0.332756,-0.47625 0.901144,-1.058333 z M 182.10894,74.026638 c -0.64268,-0.654843 -1.10898,-1.190625 -1.03622,-1.190625 0.0728,0 0.65813,0.535782 1.3008,1.190625 0.64267,0.654844 1.10897,1.190625 1.03621,1.190625 -0.0728,0 -0.65812,-0.535781 -1.30079,-1.190625 z M 49.684978,72.042263 c 0.26339,-0.291041 0.538422,-0.529166 0.611183,-0.529166 0.07276,0 -0.08321,0.238125 -0.346599,0.529166 -0.26339,0.291042 -0.538422,0.529167 -0.611183,0.529167 -0.07276,0 0.08321,-0.238125 0.346599,-0.529167 z m 130.149862,-0.06615 -0.50403,-0.595312 0.59531,0.504029 c 0.55944,0.473662 0.71576,0.686596 0.50404,0.686596 -0.0502,0 -0.31811,-0.267891 -0.59532,-0.595313 z m -128.959237,-0.8275 c 0,-0.05494 0.20836,-0.2633 0.463021,-0.463021 0.419645,-0.329107 0.429004,-0.319749 0.0999,0.0999 -0.345643,0.440729 -0.562917,0.580887 -0.562917,0.363124 z m 127.495407,-0.36312 c -0.32909,-0.419646 -0.31975,-0.429004 0.0999,-0.0999 0.25466,0.199721 0.46302,0.408081 0.46302,0.463021 0,0.217763 -0.21728,0.07761 -0.56293,-0.363124 z m -290.98702,-1.807986 c 0.0127,-0.308226 0.0754,-0.370919 0.15985,-0.159853 0.0764,0.190995 0.067,0.4192 -0.0209,0.507119 -0.0879,0.08792 -0.15046,-0.06835 -0.13897,-0.347266 z m -10.58333,-1.058333 c 0.0127,-0.308226 0.0754,-0.370919 0.15985,-0.159853 0.0764,0.190994 0.067,0.4192 -0.0209,0.507119 -0.0879,0.08792 -0.15045,-0.06835 -0.13896,-0.347266 z m 465.13749,0 c 0.0127,-0.308226 0.0754,-0.370919 0.15986,-0.159853 0.0764,0.190994 0.067,0.4192 -0.0209,0.507119 -0.0879,0.08792 -0.15046,-0.06835 -0.13898,-0.347266 z m 10.84791,0 c 0.0127,-0.308226 0.0754,-0.370919 0.15986,-0.159853 0.0764,0.190994 0.067,0.4192 -0.0209,0.507119 -0.0879,0.08792 -0.15047,-0.06835 -0.13898,-0.347266 z m -465.13748,-0.264583 c 0.0127,-0.308227 0.0754,-0.37092 0.15985,-0.159854 0.0764,0.190995 0.067,0.419201 -0.0209,0.507119 -0.0879,0.08792 -0.15045,-0.06835 -0.13896,-0.347265 z m -10.58334,-1.058334 c 0.0127,-0.308226 0.0754,-0.370919 0.15985,-0.159853 0.0764,0.190995 0.067,0.4192 -0.0209,0.507119 -0.0879,0.08792 -0.15046,-0.06835 -0.13897,-0.347266 z m 464.60832,0 c 0.0127,-0.308226 0.0754,-0.370919 0.15986,-0.159853 0.0764,0.190995 0.067,0.4192 -0.0209,0.507119 -0.0879,0.08792 -0.15047,-0.06835 -0.13898,-0.347266 z m -453.7604,-0.264583 c 0.0127,-0.308226 0.0754,-0.370919 0.15985,-0.159853 0.0764,0.190994 0.067,0.4192 -0.0209,0.507119 -0.0879,0.08792 -0.15045,-0.06835 -0.13896,-0.347266 z m 0.26458,-1.322917 c 0.0127,-0.308226 0.0754,-0.370919 0.15985,-0.159853 0.0764,0.190995 0.067,0.4192 -0.0209,0.507119 -0.0879,0.08792 -0.15046,-0.06835 -0.13897,-0.347266 z m 258.16284,-9.022233 c 0.191,-0.07643 0.4192,-0.06703 0.50712,0.02087 0.0879,0.08792 -0.0684,0.150453 -0.34726,0.138965 -0.30824,-0.0127 -0.37092,-0.07539 -0.15986,-0.159851 z m -59.266669,-0.79375 c 0.190994,-0.07643 0.4192,-0.06703 0.507119,0.02087 0.08792,0.08792 -0.06835,0.150453 -0.347266,0.138965 -0.308226,-0.0127 -0.370919,-0.07539 -0.159853,-0.159851 z m 55.297919,0 c 0.191,-0.07643 0.4192,-0.06703 0.50712,0.02087 0.0879,0.08792 -0.0684,0.150453 -0.34726,0.138965 -0.30824,-0.0127 -0.37092,-0.07539 -0.15986,-0.159851 z M 88.661411,54.92819 c 0.190994,-0.07643 0.4192,-0.06703 0.507119,0.02088 0.08792,0.08792 -0.06835,0.150453 -0.347266,0.138965 -0.308226,-0.0127 -0.370919,-0.07539 -0.159853,-0.159851 z m 52.122919,0 c 0.191,-0.07643 0.4192,-0.06703 0.50712,0.02088 0.0879,0.08792 -0.0684,0.150453 -0.34726,0.138965 -0.30824,-0.0127 -0.37092,-0.07539 -0.15986,-0.159851 z M 90.513494,54.663607 c 0.190995,-0.07643 0.419201,-0.06703 0.507119,0.02088 0.08792,0.08792 -0.06835,0.150452 -0.347266,0.138964 -0.308226,-0.0127 -0.370919,-0.07539 -0.159853,-0.15985 z m 48.402216,0.0055 c 0.1819,-0.0734 0.47955,-0.0734 0.66146,0 0.1819,0.0734 0.0331,0.133454 -0.33073,0.133454 -0.36381,0 -0.51263,-0.06005 -0.33073,-0.133454 z M 92.365577,54.399016 c 0.190995,-0.07643 0.419201,-0.06703 0.507119,0.02087 0.08792,0.08792 -0.06835,0.150453 -0.347265,0.138965 -0.308227,-0.0127 -0.37092,-0.07539 -0.159854,-0.159851 z m 44.714583,0 c 0.191,-0.07643 0.41921,-0.06703 0.50713,0.02087 0.0879,0.08792 -0.0684,0.150453 -0.34727,0.138965 -0.30824,-0.0127 -0.37092,-0.07539 -0.15986,-0.159851 z m -243.63164,-0.183732 c 0,-0.05494 0.20836,-0.2633 0.46302,-0.463021 0.41965,-0.329107 0.429,-0.319749 0.0999,0.0999 -0.34565,0.44073 -0.56292,0.580888 -0.56292,0.363125 z m 201.419098,-0.08346 c 0.257431,-0.06708 0.614619,-0.06267 0.79375,0.0098 0.17913,0.07248 -0.03149,0.127363 -0.468056,0.121971 -0.436563,-0.0054 -0.583126,-0.06469 -0.325694,-0.131773 z m 39.550172,0.0081 c 0.1819,-0.0734 0.47956,-0.0734 0.66146,0 0.1819,0.0734 0.0331,0.133453 -0.33073,0.133453 -0.3638,0 -0.51263,-0.06005 -0.33073,-0.133453 z m 201.3803,-0.28779 c -0.32909,-0.419645 -0.31975,-0.429003 0.0999,-0.0999 0.25466,0.199721 0.46302,0.40808 0.46302,0.463021 0,0.217763 -0.21728,0.07761 -0.56293,-0.363125 z M 97.905291,53.86388 c 0.327422,-0.06307 0.863203,-0.06307 1.190625,0 0.327422,0.06306 0.05953,0.114663 -0.595313,0.114663 -0.654843,0 -0.922734,-0.0516 -0.595312,-0.114663 z m 32.808329,0 c 0.32743,-0.06307 0.86321,-0.06307 1.19063,0 0.32742,0.06306 0.0595,0.114663 -0.59531,0.114663 -0.65485,0 -0.92274,-0.0516 -0.59532,-0.114663 z m -247.05468,-1.268492 c 0.34177,-0.363802 0.68094,-0.661458 0.7537,-0.661458 0.0728,0 -0.14735,0.297656 -0.48912,0.661458 -0.34177,0.363802 -0.68094,0.661459 -0.7537,0.661459 -0.0728,0 0.14734,-0.297657 0.48912,-0.661459 z m 462.33424,0.06615 -0.50404,-0.595312 0.59532,0.504028 c 0.55943,0.473663 0.71575,0.686597 0.50403,0.686597 -0.0502,0 -0.31811,-0.267891 -0.59531,-0.595313 z m -111.1,-100.0125 -99.4832,-99.549478 99.54948,99.4832 c 54.75221,54.7157619 99.54948,99.513028 99.54948,99.549479 0,0.03645 -0.0298,0.06628 -0.0663,0.06628 -0.0365,0 -44.83373,-44.7972653 -99.54948,-99.549479 z M -5.2160633,-47.417112 C 49.426864,-102.06018 94.194245,-146.76815 94.267005,-146.76815 c 0.07276,0 -44.575558,44.70797 -99.218485,99.351038 -54.642927,54.6430732 -99.41031,99.351042 -99.48307,99.351042 -0.0728,0 44.575559,-44.7079688 99.2184867,-99.351042 z M 110.16619,45.306848 c -2.52972,-0.31764 -6.85612,-1.362676 -9.03142,-2.181527 -3.646619,-1.372706 -8.364587,-4.100896 -11.616705,-6.717421 -1.688666,-1.358636 -6.681867,-6.204011 -6.539743,-6.346132 0.05231,-0.05231 0.789197,0.211852 1.63753,0.587025 2.614247,1.156142 8.026924,2.914269 11.635793,3.779494 13.282995,3.184591 27.163195,2.637232 41.979905,-1.655456 2.23168,-0.646559 5.05656,-1.544063 6.27748,-1.994455 1.22094,-0.450392 2.28248,-0.756317 2.35897,-0.679831 0.19957,0.199572 -4.23916,4.515276 -6.45779,6.278798 -5.46047,4.34036 -11.47456,7.191774 -17.7532,8.417179 -3.28262,0.640667 -9.45306,0.893757 -12.49082,0.512326 z M 80.367509,27.129243 C 73.314014,18.325745 68.228013,7.9152776 65.548525,-3.2035301 c -0.378566,-1.5709027 -0.645817,-2.8986745 -0.593884,-2.9506042 0.05193,-0.05193 4.078906,2.2043681 8.948835,5.0139944 l 8.854419,5.1084136 0.453279,1.337728 c 0.698865,2.0625144 1.482016,6.2304243 1.792729,9.5408543 0.323951,3.45146 0.03287,7.288035 -0.791826,10.436632 -0.496142,1.894208 -1.452867,4.425442 -1.672678,4.425442 -0.05775,0 -1.035105,-1.160859 -2.17189,-2.579687 z m 66.027121,1.322916 C 142.58466,22.393188 142.22107,14.786623 145.3739,7.0978262 l 1.14858,-2.8010194 9.12812,-5.25922082 c 5.02047,-2.89257318 9.16173,-5.22756338 9.20282,-5.18886808 0.14822,0.1396312 -0.99975,4.8699764 -1.91325,7.8837155 -2.66685,8.7981846 -7.51227,17.9821946 -13.32937,25.2645176 -1.19147,1.491588 -2.22472,2.711979 -2.29611,2.711979 -0.0714,0 -0.4854,-0.565547 -0.92006,-1.256771 z M 110.74122,27.93157 c 0.40218,-0.06082 0.9975,-0.05919 1.32292,0.0036 0.32542,0.0628 -0.004,0.112559 -0.73125,0.110574 -0.7276,-0.0021 -0.99385,-0.05337 -0.59167,-0.114186 z m 5.82083,0 c 0.40219,-0.06082 0.9975,-0.05919 1.32292,0.0036 0.32542,0.0628 -0.004,0.112559 -0.73124,0.110574 -0.72761,-0.0021 -0.99386,-0.05337 -0.59168,-0.114186 z m -8.86718,-0.249952 c 0.18191,-0.0734 0.47956,-0.0734 0.66146,0 0.1819,0.0734 0.0331,0.133454 -0.33073,0.133454 -0.3638,0 -0.51263,-0.06006 -0.33073,-0.133454 z m 12.7,0 c 0.18191,-0.0734 0.47956,-0.0734 0.66146,0 0.1819,0.0734 0.0331,0.133454 -0.33073,0.133454 -0.3638,0 -0.51263,-0.06006 -0.33073,-0.133454 z m -14.53554,-0.270094 c 0.19099,-0.07643 0.4192,-0.06703 0.50712,0.02088 0.0879,0.08792 -0.0684,0.150453 -0.34727,0.138965 -0.30823,-0.0127 -0.37092,-0.07539 -0.15985,-0.159851 z m 16.66875,0 c 0.19099,-0.07643 0.4192,-0.06703 0.50712,0.02088 0.0879,0.08792 -0.0684,0.150453 -0.34727,0.138965 -0.30823,-0.0127 -0.37092,-0.07539 -0.15985,-0.159851 z m 3.175,-0.529167 c 0.191,-0.07643 0.4192,-0.06703 0.50712,0.02088 0.0879,0.08792 -0.0684,0.150452 -0.34726,0.138964 -0.30824,-0.0127 -0.37092,-0.07539 -0.15986,-0.15985 z m -14.29705,-0.277916 c 0.62231,-0.05589 1.57481,-0.0551 2.11667,0.0019 0.54186,0.05685 0.0327,0.102581 -1.13147,0.101621 -1.16417,-0.0011 -1.60751,-0.04748 -0.9852,-0.10337 z m 4.49093,0.0027 c 0.47294,-0.05869 1.24685,-0.05869 1.71979,0 0.47294,0.05869 0.086,0.106714 -0.8599,0.106714 -0.94588,0 -1.33284,-0.04802 -0.85989,-0.106714 z m 11.12903,0.01066 c 0.19101,-0.07643 0.41921,-0.06703 0.50713,0.02088 0.0879,0.08792 -0.0684,0.150453 -0.34726,0.138965 -0.30824,-0.0127 -0.37092,-0.07539 -0.15987,-0.159851 z M 107.8322,26.350579 c 0.25743,-0.06708 0.61462,-0.06267 0.79375,0.0098 0.17913,0.07248 -0.0315,0.127363 -0.46805,0.12197 -0.43657,-0.0054 -0.58313,-0.06469 -0.3257,-0.131773 z m 12.7,0 c 0.25743,-0.06708 0.61462,-0.06267 0.79375,0.0098 0.17913,0.07248 -0.0315,0.127363 -0.46805,0.12197 -0.43657,-0.0054 -0.58313,-0.06469 -0.3257,-0.131773 z m -14.95399,-0.256461 c 0.1819,-0.0734 0.47955,-0.0734 0.66146,0 0.1819,0.0734 0.0331,0.133454 -0.33073,0.133454 -0.36381,0 -0.51263,-0.06006 -0.33073,-0.133454 z m 17.47903,-0.0055 c 0.191,-0.07643 0.4192,-0.06703 0.50712,0.02088 0.0879,0.08792 -0.0683,0.150452 -0.34726,0.138964 -0.30823,-0.0127 -0.37092,-0.07539 -0.15986,-0.159851 z m -19.05,-0.264583 c 0.191,-0.07643 0.4192,-0.06703 0.50712,0.02088 0.0879,0.08792 -0.0683,0.150453 -0.34726,0.138965 -0.30823,-0.0127 -0.37092,-0.07539 -0.15986,-0.159851 z m 20.90209,0 c 0.19099,-0.07643 0.4192,-0.06703 0.50712,0.02088 0.0879,0.08792 -0.0684,0.150453 -0.34727,0.138965 -0.30823,-0.0127 -0.37092,-0.07539 -0.15985,-0.159851 z m 1.5875,-0.264584 c 0.191,-0.07643 0.4192,-0.06703 0.50712,0.02088 0.0879,0.08792 -0.0684,0.150453 -0.34726,0.138964 -0.30824,-0.0127 -0.37092,-0.07539 -0.15986,-0.15985 z m 1.32291,-0.264583 c 0.19101,-0.07643 0.41921,-0.06703 0.50713,0.02088 0.0879,0.08792 -0.0684,0.150452 -0.34726,0.138964 -0.30824,-0.0127 -0.37092,-0.07539 -0.15987,-0.159851 z M 96.669409,24.747993 c -0.01402,-0.399955 0.131056,-0.593982 0.442132,-0.591262 0.285599,0.0024 0.351494,0.07854 0.171963,0.198437 -0.160081,0.106913 -0.359039,0.372981 -0.442132,0.591262 -0.100949,0.265189 -0.158006,0.199348 -0.171963,-0.198437 z m 36.227031,0.08819 c 0,-0.206153 -0.14883,-0.43488 -0.33073,-0.508278 -0.19757,-0.07972 -0.14431,-0.141861 0.13229,-0.154339 0.29358,-0.01326 0.46302,0.172741 0.46302,0.508278 0,0.291041 -0.0595,0.529166 -0.13229,0.529166 -0.0728,0 -0.13229,-0.168672 -0.13229,-0.374827 z M 96.690295,16.744347 c 0,-0.363802 0.06005,-0.512631 0.133453,-0.33073 0.0734,0.181902 0.0734,0.479558 0,0.661459 -0.0734,0.181901 -0.133453,0.03307 -0.133453,-0.330729 z m 36.247915,0 c 0,-0.363802 0.0601,-0.512631 0.13346,-0.33073 0.0734,0.181902 0.0734,0.479558 0,0.661459 -0.0734,0.181901 -0.13346,0.03307 -0.13346,-0.330729 z M 96.64852,8.161004 c 0,-0.2096928 0.107958,-0.4479819 0.239908,-0.5295317 0.131951,-0.08155 0.177594,0.090016 0.101434,0.3812592 C 96.828304,8.630531 96.64852,8.7086254 96.64852,8.161004 Z m 36.1768,-0.1266983 c -0.1151,-0.4400947 -0.0806,-0.543396 0.11567,-0.3470566 0.15378,0.1537493 0.22749,0.4357211 0.16389,0.6266021 -0.0661,0.1981597 -0.18601,0.078224 -0.27956,-0.2795455 z m -4.47641,-0.4665319 c 0.191,-0.07643 0.41921,-0.067032 0.50713,0.020876 0.0879,0.087918 -0.0684,0.1504527 -0.34727,0.1389645 -0.30824,-0.0127 -0.37092,-0.07539 -0.15986,-0.1598507 z m -1.32292,-0.2645833 c 0.19101,-0.07643 0.41921,-0.067032 0.50713,0.020876 0.0879,0.087918 -0.0684,0.1504527 -0.34726,0.1389645 -0.30824,-0.0127 -0.37092,-0.07539 -0.15987,-0.1598507 z m -1.5875,-0.2645834 c 0.19101,-0.07643 0.41921,-0.067032 0.50713,0.020876 0.0879,0.087918 -0.0684,0.1504526 -0.34726,0.1389644 -0.30824,-0.0127 -0.37093,-0.07539 -0.15987,-0.1598506 z M 105.06558,6.7740238 c 0.19099,-0.07643 0.4192,-0.067032 0.50712,0.020876 0.0879,0.087918 -0.0684,0.1504527 -0.34727,0.1389645 -0.30823,-0.0127 -0.37092,-0.07539 -0.15985,-0.1598507 z m 18.78541,0 c 0.191,-0.07643 0.4192,-0.067032 0.50712,0.020876 0.0879,0.087918 -0.0683,0.1504527 -0.34726,0.1389645 -0.30823,-0.0127 -0.37092,-0.07539 -0.15986,-0.1598507 z M 106.90112,6.5149517 c 0.18191,-0.073398 0.47956,-0.073398 0.66146,0 0.1819,0.073398 0.0331,0.1334532 -0.33073,0.1334532 -0.3638,0 -0.51263,-0.060055 -0.33073,-0.1334532 z m 14.81667,0 c 0.1819,-0.073398 0.47956,-0.073398 0.66146,0 0.1819,0.073398 0.0331,0.1334532 -0.33073,0.1334532 -0.3638,0 -0.51263,-0.060055 -0.33073,-0.1334532 z M 101.36141,6.2448571 c 0.191,-0.07643 0.4192,-0.067032 0.50712,0.020876 0.0879,0.087918 -0.0684,0.1504526 -0.34727,0.1389644 -0.30822,-0.0127 -0.37092,-0.07539 -0.15985,-0.1598506 z m 8.05326,-0.00159 c 0.25466,-0.066548 0.67138,-0.066548 0.92604,0 0.25466,0.066551 0.0463,0.1210019 -0.46302,0.1210019 -0.50933,0 -0.71769,-0.054451 -0.46302,-0.1210019 z m 9.13121,-0.00474 c 0.32911,-0.063286 0.80536,-0.060883 1.05833,0.00534 0.25296,0.066222 -0.0163,0.1180042 -0.5984,0.1150673 -0.58208,-0.00294 -0.78905,-0.057121 -0.45993,-0.1204073 z m -14.80322,-0.522777 c 0.191,-0.07643 0.4192,-0.067032 0.50712,0.020876 0.0879,0.087918 -0.0683,0.1504527 -0.34727,0.1389645 -0.30822,-0.0127 -0.37092,-0.07539 -0.15985,-0.1598507 z m 21.16667,0 c 0.19099,-0.07643 0.4192,-0.067032 0.50712,0.020876 0.0879,0.087918 -0.0684,0.1504527 -0.34727,0.1389645 -0.30823,-0.0127 -0.37092,-0.07539 -0.15985,-0.1598507 z M 105.33016,5.4511733 c 0.191,-0.07643 0.4192,-0.067032 0.50712,0.020876 0.0879,0.087918 -0.0684,0.1504527 -0.34727,0.1389645 -0.30822,-0.0127 -0.37092,-0.07539 -0.15985,-0.1598507 z m 17.99167,0 c 0.19099,-0.07643 0.4192,-0.067032 0.50712,0.020876 0.0879,0.087918 -0.0684,0.1504527 -0.34727,0.1389645 -0.30823,-0.0127 -0.37092,-0.07539 -0.15985,-0.1598507 z M 106.90112,5.1920351 c 0.18191,-0.073398 0.47956,-0.073398 0.66146,0 0.1819,0.073398 0.0331,0.1334532 -0.33073,0.1334532 -0.3638,0 -0.51263,-0.060055 -0.33073,-0.1334532 z m 14.56862,-0.0055 c 0.191,-0.07643 0.4192,-0.067032 0.50712,0.020876 0.0879,0.087918 -0.0683,0.1504526 -0.34726,0.1389644 -0.30823,-0.0127 -0.37092,-0.07539 -0.15986,-0.1598506 z M 109.4197,4.9193343 c 0.25743,-0.067082 0.61462,-0.062672 0.79375,0.00982 0.17913,0.072477 -0.0315,0.1273625 -0.46805,0.1219702 -0.43657,-0.0054 -0.58313,-0.064691 -0.3257,-0.131773 z m 9.25538,0.00106 c 0.25466,-0.066548 0.67138,-0.066548 0.92604,0 0.25467,0.066551 0.0463,0.1210019 -0.46302,0.1210019 -0.50932,0 -0.71768,-0.054451 -0.46302,-0.1210019 z M 73.894353,-2.9770468 64.501645,-8.399325 64.181967,-10.57801 c -0.953039,-6.495232 -1.017375,-14.194263 -0.176291,-21.096393 1.764662,-14.481175 7.669082,-27.253097 17.279109,-37.376645 8.215148,-8.654132 17.099066,-13.34139 27.982685,-14.763983 3.53115,-0.461555 11.3902,-0.179115 14.67509,0.527396 12.53509,2.696033 23.64267,10.941188 31.96831,23.730043 8.75409,13.447009 12.13157,30.335379 9.76196,48.812598 l -0.30022,2.341052 -9.02819,5.2078017 c -4.96551,2.86429186 -9.21533,5.3233558 -9.44406,5.4645878 -0.30547,0.1886161 -1.57475,-0.2068434 -4.78147,-1.48971269 -6.3536,-2.54181241 -12.00473,-4.10478021 -18.48287,-5.11192201 -4.29422,-0.6676125 -14.26624,-0.6724703 -18.52083,-0.00902 -6.287673,0.9804824 -12.879163,2.9239237 -18.648657,5.4983857 -1.603171,0.7153672 -2.974395,1.2980537 -3.047164,1.2948602 -0.07277,-0.00319 -4.359026,-2.44582948 -9.525016,-5.4280832 z M 93.544002,-31.032815 c 1.608376,-0.548029 3.485118,-2.229864 4.370099,-3.916244 0.609992,-1.162372 0.71137,-1.676053 0.71137,-3.604511 0,-1.928458 -0.101378,-2.442139 -0.71137,-3.604511 -1.552506,-2.958389 -4.330702,-4.49453 -7.733641,-4.276143 -4.314105,0.276862 -7.361782,3.469833 -7.395779,7.748362 -0.01804,2.272208 0.374854,3.460245 1.697959,5.1341 1.459156,1.845971 3.7144,2.935692 6.07559,2.935692 0.969481,0 2.313077,-0.187537 2.985772,-0.416745 z m 49.095958,-0.395751 c 4.56157,-2.279446 5.8484,-7.937087 2.73412,-12.020761 -1.9875,-2.606159 -5.7744,-3.728879 -8.98289,-2.663193 -1.70493,0.566288 -3.58601,2.220875 -4.49575,3.954439 -0.61,1.162372 -0.71136,1.676053 -0.71136,3.604511 0,1.928458 0.10136,2.442139 0.71136,3.604511 0.85595,1.631093 2.74968,3.363923 4.26177,3.899723 0.60767,0.215321 1.94903,0.400889 2.98083,0.412377 1.58951,0.0177 2.12426,-0.103179 3.50192,-0.791607 z m -8.84262,-116.728654 -0.50403,-0.59531 0.59531,0.50403 c 0.55944,0.47366 0.71576,0.6866 0.50404,0.6866 -0.0502,0 -0.31811,-0.26789 -0.59532,-0.59532 z m -11.53385,-5.93542 c 0.191,-0.0764 0.4192,-0.067 0.50712,0.0209 0.0879,0.0879 -0.0684,0.15046 -0.34726,0.13897 -0.30823,-0.0127 -0.37092,-0.0754 -0.15986,-0.15985 z m -12.17083,-0.52917 c 0.191,-0.0764 0.4192,-0.067 0.50712,0.0209 0.0879,0.0879 -0.0683,0.15045 -0.34727,0.13896 -0.30822,-0.0127 -0.37092,-0.0754 -0.15985,-0.15985 z m 9.26042,0 c 0.19099,-0.0764 0.4192,-0.067 0.50712,0.0209 0.0879,0.0879 -0.0684,0.15045 -0.34727,0.13896 -0.30823,-0.0127 -0.37092,-0.0754 -0.15985,-0.15985 z m -7.9375,-0.26458 c 0.19099,-0.0764 0.4192,-0.067 0.50712,0.0209 0.0879,0.0879 -0.0684,0.15046 -0.34727,0.13897 -0.30823,-0.0127 -0.37092,-0.0754 -0.15985,-0.15985 z m 23.98194,-3.06041 -1.04588,-1.12448 1.12448,1.04589 c 1.04577,0.97266 1.24606,1.20307 1.04588,1.20307 -0.0432,0 -0.54923,-0.50602 -1.12448,-1.12448 z m -40.601083,-0.59531 c 0.341775,-0.3638 0.680939,-0.66146 0.7537,-0.66146 0.07276,0 -0.147341,0.29766 -0.489117,0.66146 -0.341776,0.3638 -0.68094,0.66146 -0.7537,0.66146 -0.07276,0 0.147341,-0.29766 0.489117,-0.66146 z m 12.914973,-6.39845 c 0.191,-0.0764 0.4192,-0.067 0.50712,0.0209 0.0879,0.0879 -0.0683,0.15045 -0.34727,0.13896 -0.30822,-0.0127 -0.37092,-0.0754 -0.15985,-0.15985 z m 14.02292,0 c 0.19099,-0.0764 0.4192,-0.067 0.50712,0.0209 0.0879,0.0879 -0.0684,0.15045 -0.34727,0.13896 -0.30823,-0.0127 -0.37092,-0.0754 -0.15985,-0.15985 z m -12.7,-0.26458 c 0.19099,-0.0764 0.4192,-0.067 0.50712,0.0209 0.0879,0.0879 -0.0684,0.15046 -0.34727,0.13897 -0.30823,-0.0127 -0.37092,-0.0754 -0.15985,-0.15985 z m 11.37708,0 c 0.191,-0.0764 0.4192,-0.067 0.50712,0.0209 0.0879,0.0879 -0.0684,0.15046 -0.34727,0.13897 -0.30822,-0.0127 -0.37092,-0.0754 -0.15985,-0.15985 z m -7.16029,-0.54433 c 0.90951,-0.0517 2.39779,-0.0517 3.3073,0 0.9095,0.0517 0.16536,0.0939 -1.65365,0.0939 -1.81901,0 -2.56315,-0.0423 -1.65365,-0.0939 z" id="path6307"/>
      <path style="fill:#1a1816;stroke-width:0.264583" d="m 108.42248,310.17369 c -3.55011,-0.71284 -7.74807,-2.50891 -10.986671,-4.70061 C 94.854153,303.72596 87.424539,296.35419 -10.940977,197.94014 -128.04247,80.780842 -118.54015,90.583549 -121.04254,84.358035 c -1.57809,-3.925988 -2.17769,-7.155804 -2.17769,-11.730365 0,-4.613616 0.61802,-7.962694 2.192,-11.878458 2.46581,-6.134508 -6.60654,3.217251 110.360284,-113.759129 C 89.832343,-153.51842 95.062809,-158.70372 97.706853,-160.44887 c 10.390707,-6.85818 23.738137,-6.87189 34.310107,-0.0352 2.79789,1.80932 5.29619,4.28448 108.46999,107.465737 100.7215,100.728783 105.69067,105.742259 107.43443,108.391886 3.60524,5.478174 5.10839,10.571769 5.10839,17.310465 0,6.616592 -1.4887,11.556741 -5.18853,17.21766 -1.85637,2.840329 -4.44355,5.450417 -107.43131,108.382992 -100.65922,100.60524 -105.65974,105.55925 -108.35945,107.35125 -3.36155,2.23128 -7.214,3.84624 -10.87124,4.55723 -3.42831,0.66646 -9.38598,0.65741 -12.75676,-0.0193 z m 12.36418,-10.5751 c 3.4705,-0.71409 7.33254,-2.31971 10.56313,-4.39161 2.64334,-1.69526 6.18961,-5.20663 103.35675,-102.3398 92.37488,-92.34257 100.77313,-100.809055 102.49437,-103.327359 6.88166,-10.068341 7.01315,-23.006574 0.3396,-33.413409 -1.69585,-2.644519 -5.16824,-6.149965 -102.4721,-103.447475 -96.07939,-96.073127 -100.84707,-100.796697 -103.54709,-102.588757 -8.4714,-5.62265 -18.83664,-6.62021 -28.30758,-2.72435 -5.71844,2.35228 2.25226,-5.38729 -108.4669085,105.321598 C -102.66057,50.085786 -106.02219,53.479404 -107.731,56.140829 c -3.36075,5.234262 -4.9059,10.409187 -4.9059,16.430601 0,4.215519 0.61008,7.357523 2.19347,11.296703 2.48201,6.174793 -6.43968,-3.035274 105.3235427,108.727957 91.3020093,91.30199 101.0792043,100.9996 103.3457683,102.50437 2.891849,1.91992 7.259459,3.76917 10.568719,4.47484 3.23323,0.68948 8.70275,0.70009 11.99206,0.0233 z M 27.138049,142.0907 c 0.07193,-19.1606 0.191789,-27.39181 0.420918,-28.90573 1.932331,-12.76747 6.389923,-23.33609 13.627317,-32.309365 2.364864,-2.932078 6.571673,-7.09319 9.791904,-9.685538 12.188962,-9.812356 28.302436,-15.765934 46.346755,-17.124117 4.786507,-0.360277 30.338297,-0.361973 35.174617,-0.0024 17.10502,1.271966 32.73232,6.796307 44.57174,15.756377 14.19447,10.742361 22.37396,24.829489 25.17928,43.364983 0.22913,1.51392 0.34899,9.74513 0.4209,28.90573 l 0.10057,26.78906 h -15.35864 -15.35864 v -30.1625 -30.1625 h -3.04271 -3.04271 v 30.1625 30.1625 H 114.90477 63.840187 V 138.7172 108.5547 H 60.797478 57.75477 v 30.1625 30.1625 H 42.396128 27.037484 l 0.100565,-26.78906 z M 109.82543,27.842977 c -5.16254,-0.422735 -12.912327,-2.266614 -12.912327,-3.072183 0,-0.297262 0.169119,-0.373941 0.595313,-0.269914 3.542724,0.864711 8.735404,1.780212 11.606694,2.046327 6.13168,0.568293 14.47948,-0.06266 20.9473,-1.583251 2.75685,-0.648142 2.83403,-0.65301 2.83403,-0.178803 0,0.404538 -2.44438,1.136383 -6.61459,1.980393 -5.29781,1.07223 -11.53386,1.480513 -16.45642,1.077431 z M 96.913103,16.744347 c 0,-0.523979 0.17639,-0.529167 17.991667,-0.529167 17.81527,0 17.99167,0.0052 17.99167,0.529167 0,0.523978 -0.1764,0.529166 -17.99167,0.529166 -17.815277,0 -17.991667,-0.0052 -17.991667,-0.529166 z m 0.04262,-8.6264991 c 0.108476,-0.5650839 2.487969,-1.3361856 6.836547,-2.2154595 5.88088,-1.189101 13.46778,-1.3523383 19.31457,-0.4155652 5.94334,0.9522434 10.38778,2.2808539 9.75307,2.9155655 -0.056,0.056039 -1.10151,-0.1308735 -2.32328,-0.4153614 -5.16538,-1.2027588 -8.53612,-1.6104526 -14.44124,-1.746676 -4.50005,-0.1038119 -6.57128,-0.035885 -9.12813,0.2993522 -2.93129,0.3843311 -8.647475,1.5193777 -9.715299,1.9291406 -0.277688,0.1065583 -0.364361,0.00386 -0.296238,-0.3509962 z" id="path6305"/>
    </g>
  </g>
</svg>